<svg xmlns="http://www.w3.org/2000/svg" viewBox="0 0 90 90">
  <title>logo</title>
  <g>
    <rect x="9.57" y="9.57" width="80.43" height="80.43" fill="#50c9ea"/>
    <g>
      <g>
        <rect x="0.5" y="0.5" width="84.53" height="84.53"/>
        <path d="M84.53,1V84.53H1V1H84.53m1-1H0V85.53H85.53V0Z" fill="#fff"/>
      </g>
      <g>
        <path d="M21.81,70.14q.05-.78.11-1.51t.1-1.42l.39-5.07q.06-.58.11-1.06t.07-.93l.05-.92.06-1H19.05a.13.13,0,0,1-.14-.09.59.59,0,0,1,0-.17v-.08l1.18-3.1v0s0-.07.07-.09a1,1,0,0,1,.32-.06l2.87-.17,2.75-.14,2.72-.13,2.8-.12a1.26,1.26,0,0,1,.27,0c.1,0,.14.1.14.24a.09.09,0,0,1,0,0,.1.1,0,0,0,0,0l-.32.84-.28.78-.28.78-.32.84,0,.1a1.27,1.27,0,0,1-.1.2.85.85,0,0,1-.17.21.43.43,0,0,1-.27.11H27.09q-.05.55-.1,1.16t-.11,1.19l-.78,8.38a1.23,1.23,0,0,1,0,.19.21.21,0,0,1-.14.14l-3,1.09-.31.11a1.18,1.18,0,0,1-.38.06.46.46,0,0,1-.26-.08.31.31,0,0,1-.11-.28Z" fill="#fff"/>
        <path d="M32,65.24q.14-1.47.28-2.91t.25-3a2,2,0,0,1,.07-.49.3.3,0,0,1,.24-.18l1.91-.38a15.88,15.88,0,0,0,1.93-.51h.1q.12,0,.12.09l-1,10.46a2.64,2.64,0,0,1-.08.49.28.28,0,0,1-.24.18q-.91.28-1.85.62l-2,.7h-.1q-.12,0-.12-.11l0-.29q0-.28.06-.72t.08-1q0-.55.09-1.09l.09-1.05Zm.81-8.57,0-.71q0-.25,0-.37c0-.08,0-.13,0-.16a.16.16,0,0,1,0,0,.38.38,0,0,0,0-.06s0-.1,0-.2l0-.46q0-.3.06-.83a2,2,0,0,1,.07-.49.3.3,0,0,1,.24-.18l1.91-.38a15.88,15.88,0,0,0,1.93-.51h.1a.17.17,0,0,0,.09.09l0,0-.24,2.94a2.38,2.38,0,0,1-.08.49.27.27,0,0,1-.23.17L35,56.36l-2,.41h-.1Q32.78,56.78,32.78,56.68Z" fill="#fff"/>
        <path d="M39,60.71q.13-1.47.21-2.91t.18-3a2,2,0,0,1,.07-.49.3.3,0,0,1,.24-.18l2-.37a18,18,0,0,0,2-.5h.1c.08,0,.12,0,.12.11l-1.4,15.33v.18a.19.19,0,0,1-.08.16,1.17,1.17,0,0,1-.35.13l-2.81,1-.31.11a1.28,1.28,0,0,1-.38.06.46.46,0,0,1-.26-.08.29.29,0,0,1-.11-.26V70l.17-2.12q.08-1,.17-2.14t.2-2.34Z" fill="#fff"/>
        <path d="M51.34,57.81a4.4,4.4,0,0,1,1.85.38,4.76,4.76,0,0,1,1.43,1,4.4,4.4,0,0,1,.92,1.36,3.79,3.79,0,0,1,.32,1.5,2.55,2.55,0,0,1-.41,1.34,4.23,4.23,0,0,1-1.14,1.21,6.19,6.19,0,0,1-1.77.87,7.34,7.34,0,0,1-2.27.33,7.57,7.57,0,0,1-1.35-.13,1.67,1.67,0,0,0,.27.79,1.89,1.89,0,0,0,.57.55,2.55,2.55,0,0,0,.78.32,3.9,3.9,0,0,0,.9.1,5.28,5.28,0,0,0,1-.09,6.68,6.68,0,0,0,.92-.24q.44-.15.85-.33l.77-.36.17,0,.13,0q0,.34,0,.65t0,.75q0,.44,0,1a.34.34,0,0,1,0,.11.46.46,0,0,1,0,.09q0,.13-.24.28a4.23,4.23,0,0,1-.62.31,9.19,9.19,0,0,1-.87.31q-.49.15-1,.27t-1,.19a5.75,5.75,0,0,1-.83.07,6.44,6.44,0,0,1-2.25-.4,6,6,0,0,1-1.93-1.15,5.55,5.55,0,0,1-1.85-4.24,7.14,7.14,0,0,1,.48-2.64,6.49,6.49,0,0,1,1.36-2.14,6.37,6.37,0,0,1,2.09-1.44A6.65,6.65,0,0,1,51.34,57.81Zm-.13,2.86a1.77,1.77,0,0,0-.81.19,2.27,2.27,0,0,0-.68.54,3.46,3.46,0,0,0-.53.84,5.71,5.71,0,0,0-.36,1.08,17,17,0,0,0,1.84-.41,7.28,7.28,0,0,0,1.17-.43,1.93,1.93,0,0,0,.62-.44.67.67,0,0,0,.18-.42.56.56,0,0,0-.14-.36,1.43,1.43,0,0,0-.36-.3,1.88,1.88,0,0,0-.47-.2A1.73,1.73,0,0,0,51.21,60.67Z" fill="#fff"/>
        <path d="M66,61.06l-.5,0-.59,0a5.9,5.9,0,0,0-1,.08,2.74,2.74,0,0,0-.91.32,2.26,2.26,0,0,0-.72.65,2.3,2.3,0,0,0-.39,1.07l-.12,1.3q0,.51-.07.84t0,.53q0,.2,0,.37s0,.11,0,.24,0,.28,0,.45,0,.36-.06.56,0,.39-.06.56,0,.32,0,.45,0,.21,0,.24,0,.11,0,.14,0,.08,0,.11a.17.17,0,0,1-.08.14,1.27,1.27,0,0,1-.36.13l-2.84,1-.31.11a1.18,1.18,0,0,1-.38.06.46.46,0,0,1-.26-.08.29.29,0,0,1-.11-.26L58,59.38a2.27,2.27,0,0,1,.08-.49.3.3,0,0,1,.24-.18l2-.39a17.28,17.28,0,0,0,2-.51c.06,0,.09,0,.1,0a.16.16,0,0,1,0,.08.56.56,0,0,1,0,.06l0,.19-.08.46-.13.85a7.72,7.72,0,0,1,1.09-.71,10.27,10.27,0,0,1,1.2-.55,9.37,9.37,0,0,1,1.16-.36,4.25,4.25,0,0,1,1-.13Z" fill="#fff"/>
      </g>
      <g>
        <path d="M36.52,24.66,36.61,37l-.23,2.28-.6,2L35,42.82l-1.86,2-.79.56-.65.56-2.6,1.21-.84.51L26.4,48h-1l-1.3.14H22.64l-.93-.28h-.84l-1-.42L19,47.23l-1.72-.65L15.16,45l-.74-.7-1.49-2.41-.65-1.67L12,39.24l-.09-.93,0-1.39-.14-1.35,0-1.63.46-.88,1-.42h1l.93-.09,2.93.09,1,.37.51.84-.09.84,0,2.09L20,38.22l.32.79.65.6.84.46.93.32,1.3.28,1.35-.14L27,39.76l.51-.65.37-.93.19-14.26L27.56,23l-1-.51-1.44.09H23.8l-.88-.14L21.85,22l-.32-1-.09-.93.09-.74,0-1.11,0-.88-.09-1,.51-.79,1-.42h1L25.28,15l1.35.23,1-.14,3.72.14,1-.09,2.32,0,1.44.37.46.93.09,7.38ZM13.58,37.9l0-.28-.19-.14v.28Zm0-1.81-.23,0v.19l.23,0Zm.14-1L13.63,35l-.14.19.19,0Zm.09,3.44.09,0,0,0,0,0ZM14,41.47H14l0,.09.14,0ZM32.67,39.1l.28-2.28-.14-7L33,28l-.14-3.3L33,22.48l-.14-.93L33,19.46l-.51-.88-1.53-.42-4.83,0-1.3.28,0,.56,3.81.28,1.81,0,1,.28.42,1,.14.93-.14,2L32,25.13l-.19,2,0,1,.09.74-.14,9.33-.23,1-.74,1.58-.51.7L28.07,43.1l-.88.32-.84.14-.88.23L24,43.93l-1.39,0-1.72-.46-2.37-1.35-.74-.6-.93-1.53-.32-.84-.14-.88,0-1.39-.28-1.11h-.6l-.23,1.11.09,1.35.14.84.23,1,.51.65.37.79.51.7,1.39,1.11,1.53.93,1.72.51,1,.14,2.69-.09.93,0,1.53-.51,1.63-.84L31,42.08l1.35-2.23ZM16.14,43,16,42.87l-.19,0L16,43ZM17,45.28h-.14v0l.14,0Zm.84.7-.23-.09-.28-.19,0,0,.28.14Zm.65-7,0,0,.09,0,0-.09Zm3.85-21.22-.09-.14-.14,0,.09.09Zm2.14,2.37.23-.28-.09-.14-.32.19-.46.28L23.61,20l.09-.28.56-.19.19-.23,0-.28-.14-.46-.42,0-.23.51-.23.14-.56-.09-.23.14,0,.37.42.14V20l-.14.14.14,0h.32l.28.32-.28.23-.23.19L23,21l-.14.32,0,0,.28-.09h.32l.33.23.32-.23L23.94,21l-.37.09,0-.19,0-.28.23-.09.42-.19Zm-1.72-2.79.19-.09,0-.09h-.14Zm.19.56.28.33.32-.28-.09-.23-.19-.19-.23.09Zm.09.79,0,.09,0,0,.09-.09ZM23.57,17l.14.19,0-.19-.09,0Zm.74.32h.37l.14-.28H24.4Zm.32.51-.09.23.23-.14.09-.32Zm.42,3.34-.37,0-.14.32.37-.09Zm.23-1.11L25.1,20l-.32.14-.19.37.28.09,0-.37.19-.14Zm-.51-3.67.14,0,.09-.19.28.14.23.19.23.23.14.23.14-.09.23,0,.09,0,0,0-.14-.23.23-.14.6.14.28,0,.23-.19.28-.09.14.19.19.09,0,.23-.32.28.19.19.23-.19.19-.14v0l.28-.23.19-.14-.09-.23,0-.23,0-.28-.28-.09,0,.28,0,.14h-.23L27.88,16l-.42-.14-.23.28H27L26.72,16l-.14,0,.09.09,0,.14-.23,0h-.28l-.42,0-.23-.09L25.1,16l-.09.14-.23.09Zm.6.6,0,.23.14.14.09-.14L25.47,17l-.14-.19-.09,0,.09,0Zm2.93,5.39.14.23-.28.23.46.09h.23l.14.19-.14.28.28-.09,0-.23-.28-.46-.14-.19-.23-.19V22.2l.19-.14-.51-.23-.14-.28.23-.14.28,0,.42-.09.32.19.19.23-.28.19-.09.28.14.46.19-.09h.46l-.23.46-.09.23,0,.28-.09.23-.19.19-.28.32.37.28v.32l-.19.09-.14,0,.14,0,.09.09.23.32.14.28,0,.28-.14.46.14.32.32-.14,0-.37,0-.19L30,26l0-.23.09,0,.32-.19.14-.19-.19-.42h-.23l-.42.19L29.6,25l.09-.28.09-.23.46-.09.09-.19-.23-.46,0-.19.37.23.33,0-.14-.23-.23,0h-.32l0-.19.19-.14.42-.19-.14-.19-.19-.14-.14-.23V22.2l.42.09.23-.19-.28-.19-.37.19L30.07,22,30,21.83l-.19-.14-.28-.28-.32-.19-.23.14-.32-.19h-.28l-.28-.23.09-.32-.19,0-.28-.37-.37.09-.09.51-.51-.09-.23-.09-.14-.28-.19-.19-.28,0-.23.19-.28.28.23.28.19.19.19.14.28.09.14.19h.19l0-.19-.28-.09,0-.09.09-.09.14,0,.37,0,.37.28,0,.23.09.28h.42l.09.51.19.19Zm-2.55-.74h-.14l-.09.14h.19Zm2.6-1.44v-.14L28.16,20v.19Zm0,2-.09,0,.19,0Zm.23,23.64-.28-.28,0,.28.19.14Zm.19-11.28,0,.09h.09l0-.09ZM29,36.78l0,.32.28-.09v-.28Zm.37-5.43.23-.09.14-.19-.09-.19-.14.28-.37.19.09.46.19-.14Zm0,2.23,0-.09h-.09l0,.09Zm0-16.35.32,0,.23,0,.28.14.23.09.51-.23L30.53,17l.33-.32.51.09.19.46.51,0h1.07l.23,0,.19-.14.19-.19h.37l.14.14-.28.28-.56.19-.56.09-.42.14h.33l.23.14.28.09.42,0,0,.32-.46.09.09.37.6.19.51.19.14-.14h.28l.28,0,.51-.19,0-.51-.6,0-.28,0-.51-.09-.14-.19.19-.23.37.14.42-.09.56.09.09-.51L35.64,17l.19,0-.23-.23-.32-.14-.32-.19,0-.28v-.28l-.37.19-.23,0-.37.23-.56.23-.19-.14v-.56h-.56l.14.37-.14.14L32.34,16l-.51,0-.42.28L31.27,16l-.28.14-.23.09-.28,0-.42.23-.46.19-.19.19Zm.46,3.53.23-.09v-.42H29.6l-.23.14-.09.37Zm-.46,9,.37,0,.14-.28h-.37Zm.51,15.56-.28,0-.19,0,0,.37.32,0,.19-.14Zm.51-17.83v-.23l-.14-.14-.51,0-.28,0v.51l.14.51.19.09H30l.46-.23-.09-.46Zm-.93,1.25,0,.23.23,0V28.8Zm.09-12.49,0,.19h.23l-.09-.23Zm.46,11.42L30,28l-.37-.23,0-.28Zm.32,2.88,0-.09-.42-.14-.14.19,0,.32.14-.09.23,0v-.19l.14,0ZM29.93,34l-.23,0-.09.09h.32l.32,0v-.14Zm-.32,2h.23l.09-.19-.28,0ZM29.88,38l.42,0v-.42l-.42,0Zm.46-16.48.46,0v-.42l-.09-.28-.51-.14-.14.19v.56Zm.33,14.16.09-.19V35.3l-.14-.14-.23-.28v0l-.14.19-.19.23.09.19Zm-.28-1.25,0,.09h.09l0,0ZM30.58,26l0,0-.09,0,0,.09Zm.32,7.43,0-.32-.33-.19v.37Zm.65,11.24-.33,0-.19.09-.37.14.23.32.28.14.37-.19,0-.42,0-.09Zm-.65-14.4L31,30.1l-.09-.19-.09.19Zm.79,13.56-.32-.09V44h.32Zm.6-.28.09-.14h-.14l0,.14Zm.23.93-.14-.09-.09.14.14.09ZM33,41.66l-.28-.28,0,.19.09.23Zm.6-1.07-.46.14-.09.28.46-.14Zm-.19,1.67h-.23l0,.23.23,0ZM33.83,25l.32.23.28,0,.09.23-.23.19-.37.23,0,.19.46.14.42-.46,0-.28-.19-.51h.23l.51,0,.19-.19v-.28l0-.33.19-.14v-.28l-.23-.23h-.32l-.19.19-.19,0-.19-.32L34.48,23l-.28.09,0,.32-.28.14-.09.23.09.28-.28.19,0,.51,0,.33Zm0,8.5.32.28.14-.19.19-.32.42-.09.19-.42v-.23l-.19.19-.19.28-.23,0-.33-.23h-.14l.09.14.09.19L34,33.3Zm1.44-12.63.19-.09.32-.23-.14-.46-.32-.37-.6-.23.14,0,.23-.09L35,19.14l-.14.19-.32-.09-.51.23v.37l0,.23.19.23-.28.19.14.23,1.16-.65.19.09,0,.23-.28.23,0,.32.09.19-.23,0-.23-.09-.37,0-.14.14.33.19.09.28.32.46.28.09.51-.14.09-.56,0-.23-.23-.14Zm-1,3.81-.32,0,.28-.32.46-.23-.09-.37.37.09.37-.19.19.19-.19.28v.14l0,.14-.23.09-.56.09ZM34,29.26l0,.19.19,0,0-.19Zm.14,1.3.42.19L35,31l.23-.19-.19-.37-.19-.23L34.71,30l-.28.23-.23.09-.23.32.14.37v.28l0,.56.23.14.19.19.09.28.37-.23h.28l-.23-.09L34.9,32l-.32-.23-.23-.09v-.74Zm0,10.91H34l0,.09h.19Zm0-4-.14,0v.14l.19,0Zm0-15.88,0,.23h.19l0-.14Zm.37-4.92h-.37l0-.14.23,0Zm-.32,10.45.28.23,0-.33-.37-.37Zm0,1.35.37.09-.09-.28-.23,0v0Zm.19,6.73,0-.19-.19,0,0,.19Zm.14,3.39-.28,0,0,.32.32,0Zm.19-19.74v0h0l-.19-.23.09-.23.19.14Zm0,17.18,0-.14-.14,0,.09.14ZM35,17.46h-.32l.7-.32-.09.23Zm-.23,10.12V27.4l-.09.14v.19Zm-.09,10.68h.14v-.19l-.14,0Zm.51-15.7-.42,0,.09.37.37,0ZM34.85,29l.09,0v-.09l-.14,0Zm.32,11L35,40l-.23,0,.23.19Zm0-6-.09-.19h-.23l.09.14Zm0,4.69,0-.19h-.19l0,.19Zm.19-10,.42-.19v-.65l-.23-.09-.23.09L35,28l.19.51Zm.14-2v.32h.23l-.09-.37-.19-.32-.19-.09,0,.19Zm.37,3.16-.28-.32-.14-.19h-.14l0,.14.19.09-.09.28v.42l.37-.19ZM35.5,35h-.14v.09l.14,0Zm.32,2.6-.09-.09-.19,0,.14.14Zm0-11.93v-.19l-.19,0v.19Zm.28-6.18h-.19l-.09.19H36Z" fill="#fff"/>
        <path d="M73.72,36.69l-1.21,3.53-1,1.67-1.07,1.39-1.3,1.3-2.28,1.63-.79.37-1,.32-.84.46-2.74.56-3.25.23L56,48l-.88,0-.84-.19-.93-.32-.84-.19-2.09-.88-2-1.07-2.09-1.81-1.9-2-2-4-.65-2.65-.28-3.39.46-4,.46-1.9,1.16-2.6.88-1.35,1.25-1.58,2-1.81,1.35-1,3.44-1.62,4.5-.88,2.88,0,.93.14.88,0,4.46,1.49,3.16,2,1.3,1.35.51.88.65.79.42.74.51.74.28,1,.32.84.28,1-.32.93-.79.37-1.39.14-1.3-.14-.93,0-1,0L67,27,66,26.52l-.88-.88-.51-.7-1.35-1.35-.65-.51-.84-.32-1.44-.42-2-.09-3.11.42-1.25.7-1.11.88-1.11,1.3-.46.88-.7,1.67L50.22,30v2.83l.14,1,.23.84.33.65.32.93,1,1.63,1.35,1.21,1.63.84,1.67.6,1.35.14,2.46-.14,1.63-.88.7-.28.74-.65,1.07-1.21.46-.88.74-.74,1.07-.56.93,0,.93,0,.93.14,2.6-.19.93.6ZM43.81,29.4l0-.09h-.14v.19Zm.37-2,0-.09-.09,0Zm.84-2-.09-.23-.14.19-.09.19-.19.28.37-.09ZM44.6,24l0,.09.19,0,.14-.28-.19,0-.14.23Zm.56-1.58.28-.09.32.09h.37l0-.37-.65,0-.28.14Zm.14,1,.19.23.09-.14-.23-.19-.09,0Zm24,15-.65.09-1.39,1.63-.6.56-.65.79L63.64,43l-.88.23-.88.32-2.41.28-1.11-.09-1.44.14L56,43.75l-3.39-1.3-.88-.51-2.14-1.67-1.07-1.35-1.39-2.55-.23-.93-.09-.84-.42-1.67,0-3.95.42-1.76.79-1.72.28-.84L48.5,24l1.11-1.63.65-.56.79-.46.74-.6.79-.51.88-.28.84-.37.88-.28L57.42,19l2.42-.09.93.28.93.14,1.72.46.88.37,1.53.93.65.65,1.16,1.44.84.79h.6l-.19-.79-.46-.74-.7-.84-1.3-1.21-1.53-.93-.79-.23-1.67-.84-.79-.28H60.29l-2-.19-3.2.33-.88.42-.79.28-.93.19-.74.51-1.58.88-2.41,2.6-.56.84-1.11,2.41-.28.93-.14.93-.23.84-.14,3.67.56,2.88.65,2,.51.7.46.88,1.67,2.18,2,1.39,2.09,1.16,3.62,1,1.39-.14,1.58.09,3.67-.79L65.59,43l1.11-.84,1.9-2,.56-.84ZM45.53,24.34l-.19,0,0,.19h.19Zm0-2.65.32.09.28-.37.14,0,.42.28.19.19-.28.46,0,.32h-.37l0,.37.19,0L47,22.9l.19-.14.14-.19,0-.23v-.28l0-.23V21.6l-.09,0-.14,0L47,21.41l.19-.14h.28v-.42h-.32l0,.19-.37.09-.23,0-.28,0-.42.14,0,.23ZM45.95,24h-.19l0,.14H46Zm.28-.7v.19h.14l0-.19Zm.19,18-.09-.09v.14l.09,0Zm.56.79,0,0-.09,0-.14,0-.19,0,.19,0Zm-.28-21.78.28,0,0-.23-.19,0Zm1,21.55-.19,0,0,.19.14,0ZM47.52,20l.14,0v-.19h-.09Zm.37.65.28.23.51-.23-.28-.51.19-.42-.37,0,0,.37v.28Zm.28-1.3.14-.14v-.14l-.14.09Zm.37,11.84h-.19l.09.14h.19Zm-.09-12.68.28,0,.14,0-.14-.14H48.5Zm.32,11.38,0,0,.09,0,0-.09Zm.14-1.72v.14l.14,0v-.14Zm0-9.61,0,.19.14.19.23-.23-.19-.09Zm.46,8.64-.37.09.09.09.32.09Zm0-1.62-.28,0v.19l.23,0Zm.09-.56.28,0,.23-.37,0-.37-.37.09-.14.19-.09.19Zm.09-6,.37,0,.51-.09.14-.23,0-.23,0-.28-.19.19-.14.23-.09.32h-.23l-.23-.09Zm0,17.27,0,.09.09,0Zm.19.79-.19.14h.23l.42,0,.19-.19h-.28Zm.37-13.37-.09-.09,0,.14Zm.6,1.53-.28-.19-.23.09.19.09Zm-.42,13.42.19.09.14,0-.09-.23Zm.88-14.4,0-.23-.46.09-.09.23-.14.09h.14l.23-.14Zm-.51-1.53.09-.09v-.14l-.14.09Zm.79,21.92,0-.14h-.19l0,.19Zm-.14-27.21.09.37h.32l.23-.14.28.09,0,.28v.09l.09,0-.14-.32-.32-.28-.46.09Zm.42,5-.19,0,0,.19.19,0Zm.37,17.37-.09.23.23.23.09-.28-.28-.28Zm0-22.66.19,0,0-.19L52.35,17Zm.42,6L52.63,23l-.23,0,.09.23Zm.19,16.53.09.09v0l-.09-.09Zm.19.65-.09,0,.09.09,0,0Zm0,5.9-.09,0,0,.09h.14Zm.28-23.82-.09-.09-.19,0,0,0,.19.09Zm0-5.25.09.19.19.14.28,0-.19-.23-.14-.09ZM53.52,42l.14,0,0-.23-.19,0Zm.88-20.15H54l-.23.28.32,0,.23-.09Zm-.28-5.15.19,0,0-.14h-.14Zm.23,29h-.09l-.09.14h.14Zm-.09-3.48.19,0h0l-.28-.14Zm.37,3.95-.14,0,0,.09.14,0Zm0-5,.28.09L55,41.1l.19.14.14,0-.09-.09H55L54.82,41Zm.74.84.09-.14-.37,0-.37.37.32.09.19,0,.7.33.23,0,.23,0,.42,0,.42.19.42-.09,0-.23-.33,0L57,42.36l.23-.37.09-.19-.19.14L57,42l-.42.14-.19.28h-.19l-.32-.28-.19,0Zm-.46-25.77H55l.09-.09h-.14ZM55,17.42l-.09,0,0,.09h.09Zm.09,3.2.09-.09-.19,0,0,.09Zm.56,1.16.23,0-.14-.28.09-.32-.28.37-.23.14-.19-.19-.14.14.28.23ZM55.47,46.3l0-.09-.09,0v.09Zm.42-29.63.09.23.51,0,.28-.46-.09-.23,0-.19h-.28l-.46.23Zm.19,5.11-.14,0h0Zm.09-5.34-.14,0,0-.09h.14Zm.19,30.32.09-.14-.09-.09,0,.09Zm.33.46-.09-.09,0,.09.09,0Zm.65-25.82-.09,0-.09,0,.09,0Zm0-4.74.23.23.42-.42.28-.09.23.09.19,0,.23-.14.23,0v.23l.32.37.28.09.19.32.28-.19L60,16.91v-.14l.32,0,0-.28-.28.09-.23-.09,0-.37-.09-.23-.19-.19-.23,0-.09.23,0,.23-.28.14-.46.09-.51,0-.19.09Zm.28,29.86-.09,0-.09.14.19,0ZM57.74,21l-.19,0,0,.09h.14Zm-.14-5.34.28,0v-.23l-.23,0ZM58.16,47l-.32.14v.28l.28-.14Zm-.28-5,.14.19.32.23.19.09.32-.32.23-.09.23,0h.28l.23,0,.42-.09,0-.37-.19-.09-.88.19-.23,0h-.74L58,41.57ZM58.21,17l0,.09.14-.09Zm.14,25.17,0-.28.23.14ZM58.95,21h-.42l0,.32h.37Zm-.28,20.8h-.19l.19-.09Zm.09-21.31v-.32l-.23.09v.23Zm-.09,22.43-.14,0,0,.09.14,0Zm1.53,3.62L60,46.3h-.37l-.28,0L59,46.4l0,.14h.37l0,.23-.28,0L59,47l.28.09.19-.19.28-.09H60Zm-.6-25.87-.32-.23-.14-.19,0,.19.09.32.23.14Zm-.42,22.15,0,.19h.19l0-.14Zm1.16-.7-.42.14-.19.19h-.23l-.19,0,.28,0,.28,0v.32l.19.28.14-.23L60,42.63l.09-.09.32.14.28-.19-.19-.32Zm0-20.57,0-.28-.23-.14-.37,0,.14.28.19.09Zm-.42-4.88-.09.09v-.14ZM60,46l.09-.19L60,45.75l-.14.19Zm.84-25.63-.09,0v.09l.09,0Zm0-3.58h.32l.19-.09.19-.14v-.42h-.46l-.19.19Zm.19,30,.23-.09-.14-.14-.28,0Zm-.14-4.6,0,.19.37.14.19.23.14-.09-.09-.14-.23,0,0-.19.37,0,.46.09.23.09-.19-.19-.28-.37-.09-.28-.32-.14,0,.23-.14.19-.23,0Zm.19,3.76,0-.09H61Zm.32-25.45-.14-.19h-.14l0,.23Zm.42-3.62.09.51.19.19.23.14.23,0,.37.14,0-.23-.32-.14-.19-.14,0-.28,0-.46-.14-.14-.09-.23V16l-.23-.09.09.28v.46ZM62,20.3l-.19,0,0,.14H62Zm.28,1.21-.14,0,0,.14.14,0Zm.37,19.78.23.19h.23l.32,0h.42l-.14-.23-.19-.14-.23,0H63l-.23,0Zm1.58-19.92-.19-.19L63.64,21l-.14.14h-.33l-.28.09.23.28.37-.19v.37l-.09.19-.28.14-.28,0-.14.09.19.14.28-.14.28.09.28,0,0,.09L64,22.2,64.1,22l0-.23.09-.19ZM62.8,41.89l-.09.14.19.09L63,42Zm.65,3.76-.37,0-.09.42-.09.28.32,0,.14-.19.09-.19ZM63,16.81h.28l.09-.14.09-.28-.28.09Zm.19,23.68.19.23.28-.23.14-.14.23-.09,0-.19-.23.19-.23.09Zm.7-22.89-.23,0-.19.09.09.42.46,0,.37.09.09-.28-.23-.23.19-.19.37.19.37-.19.14.14-.23.37-.09.23.14.09.23,0,.46,0,.37.28,0,.19.28,0,.19.14.23.14,0,.19h-.37l0,.32.37,0,.19.14.09-.23.19,0,.23.09.19.14.14.19-.09.23,0,.14.09-.09.23-.09.23.09.14.09-.14.14-.19.14.14.46.28,0,.28,0,0-.23-.09-.28.14-.19.14-.14,0-.37-.23-.32h-.23l.14.23L69,20l-.19,0h-.23l-.23,0h-.19L68,19.79l.09-.23L68,19.18v-.32l-.28-.14-.23.32-.19.14,0-.28,0-.19h-.51l-.32-.19-.19-.19-.09-.28-.19-.19-.19-.46,0-.23-.19-.09-.23.09-.23,0-.37.09-.23,0-.19,0L64,17.14l0-.28.32-.19-.23-.19-.37.56,0,.37Zm.19,5.34L64,22.81l-.14-.09.09.14Zm.09,17.6.09.09.23,0,0,0,0-.14.09,0-.19,0Zm.37,5.29,0-.14h-.09l0,.19Zm0-27.31,0,.19h.19v-.19Zm1.25,3.62-.37-.23-.46.46-.09-.23.09-.23-.28.09-.19.19v.46l.23.09.51-.19h.46ZM64.52,39.94l.14,0V39.8h-.09Zm.32,5-.09,0,0,.09h.14Zm0-5.71L65,39.1h.37l.23-.19-.28-.14-.42.14Zm.46,6-.14,0,0,.14h.14Zm-.09-5.11,0,.09.09,0,0-.09ZM65.63,23h-.37l0,.42h.37Zm0,16.49.09-.19-.14.09h-.28l-.14,0,.19.19Zm-.09,1,0,.14.09,0,0-.09Zm.51,3.81.32,0-.19-.14H66l-.23.14Zm-.28-5.8.37,0,.09-.32-.37.14Zm.51-13.79-.19-.32-.14.32-.09.14,0,.32h.42V25Zm.56-.88-.28-.09-.28-.14-.28,0v.32l.37.28.23,0Zm-.6-5.71.19,0,0-.14-.14,0Zm.09,5,.14,0,0-.19-.19,0Zm0,14.4h.09l0-.14h-.14ZM66.52,44l.09,0,0,0h-.14Zm.84.84-.19-.19-.23,0,.19-.19,0-.19-.19.14-.19.19-.28-.14.56.46Zm-.6-6.27.19.09-.14-.09Zm0,.51v.09l.09,0v-.14Zm1.53-13.47-.19-.23.14-.28L68,24.9l-.32,0-.19,0-.28.23-.23,0v.19l.19.28v.14l.23-.09.14-.19.23-.09.28.32Zm-.93-1.11,0-.28h-.23l0,.23Zm-.32.46h.14l0-.09-.14-.09ZM67.26,18l0,.14.28.14,0-.28ZM68,36.32l.09.14.09,0v-.09Zm.23-17.46,0,.32.32.09,0-.28Zm.23,23.31,0-.19-.14,0,0,.19Zm.09-4.23,0,.19.14-.09V37.8ZM68.75,43l-.09-.09h0l0,.09Zm.84-16.9-.19-.23-.19-.19-.37,0,.09.28.19.14.37.19Zm-.6-.93.32-.09v-.37l-.37,0Zm.23-3.85.28.23h.23l.19-.09.19-.14.14-.23v0l-.19.19-.19,0-.23,0L69.35,21Zm.28,16.21-.14,0-.14.09.19,0Zm0-15.65v-.09H69.4V22Zm-.14.28,0,.09h.19l0-.09Zm1.49.32-.65.23-.32.14-.28.19-.19.19.19.09.46.14,0,.23-.19.42-.14.19-.14.32.19.09v.09l-.19.19-.09.19.32.23h.23l.23.14.23,0h.23l.23,0v.14h-.23l-.33,0,0,.14.28.19.28,0h.23l.23-.09.42,0,0-.28-.46-.09,0-.19.14-.19,0-.28,0-.23-.14-.23-.23,0-.56.14-.14,0,0-.19.37-.14.46-.19.23,0,.37,0,.09-.33-.32-.19,0,0-.19-.09H71.3l-.09.14,0,.23H71l-.09-.19-.19-.14-.28-.28,0-.19h-.23L70,23l.14-.23h.28l.42.19.23,0,.19-.14.28-.23-.09-.19-.37.09Zm-1.07-1.95H70v-.09l-.14,0Zm.09,16.35h.19v-.14l-.23,0Zm1,2.18-.09-.14-.14-.09-.19-.14-.23-.14H70l.14.19.32,0,.14,0,0,.23Zm-.56-17.55-.09.23-.09.37h.42l.09-.23,0-.23.14-.37-.37,0Zm0,16.44.09.23.28.09-.09-.37Zm.37-13.79L70.51,24l.28-.09L71,24l0,.09Zm1.53,13.51-.14,0,0,.14.19,0Zm-.14-12.35.19.19v-.19Z" fill="#fff"/>
      </g>
    </g>
  </g>
</svg>
